<?xml version="1.0" encoding="utf-8"?>
<!-- Generator: Adobe Illustrator 20.1.0, SVG Export Plug-In . SVG Version: 6.00 Build 0)  -->
<svg version="1.1" id="Layer_1" xmlns="http://www.w3.org/2000/svg" xmlns:xlink="http://www.w3.org/1999/xlink" x="0px" y="0px"
	 viewBox="0 0 512 512" style="enable-background:new 0 0 512 512;" xml:space="preserve">
<style type="text/css">
	.st0{fill:#032950;}
	.st1{fill:none;stroke:#FFFFFF;stroke-miterlimit:10;}
</style>
<g>
	<g>
		<path class="st0" d="M458.9,328.2H504l-44-3.1c7.4-21.7,11.5-45,11.5-69.3c0-118-95.7-213.7-213.7-213.7
			c-85.7,0-159.6,50.5-193.7,123.4H51.2l-37.7,22.8H35l35.7-21.6l150.2,21.1H55.1v0h-3.9l-37.7,22.8H35l28.8-17.4L240.8,216h-193
			c-0.1,0.8-0.3,1.5-0.4,2.3l-33.9,20.5H35l28.9-17.5l220.6,23.8H44.4c0,0.4,0,0.7,0,1.1l4.4,0.4L13.5,268H35l32.2-19.5l236.7,23.8
			H44.7c0,0.5,0.1,0.9,0.1,1.4l3.6,0.3l-34.9,21.1H35l32.1-19.4L328.7,300h-280c0.1,0.5,0.2,0.9,0.3,1.4l-35.5,21.5H35l33.1-20
			l363,25.4H51.2L13.5,351H35l31.3-19l339.5,25.3H69.7c36.1,66.8,106.8,112.2,188.1,112.2c81.3,0,152-45.4,188.1-112.2h37.7
			l-36.3-2.7C451.7,346.2,455.6,337.3,458.9,328.2z"/>
	</g>
	<g>
		<path class="st1" d="M458.9,328.2H504l-44-3.1c7.4-21.7,11.5-45,11.5-69.3c0-118-95.7-213.7-213.7-213.7
			c-85.7,0-159.6,50.5-193.7,123.4H51.2l-37.7,22.8H35l35.7-21.6l150.2,21.1H55.1v0h-3.9l-37.7,22.8H35l28.8-17.4L240.8,216h-193
			c-0.1,0.8-0.3,1.5-0.4,2.3l-33.9,20.5H35l28.9-17.5l220.6,23.8H44.4c0,0.4,0,0.7,0,1.1l4.4,0.4L13.5,268H35l32.2-19.5l236.7,23.8
			H44.7c0,0.5,0.1,0.9,0.1,1.4l3.6,0.3l-34.9,21.1H35l32.1-19.4L328.7,300h-280c0.1,0.5,0.2,0.9,0.3,1.4l-35.5,21.5H35l33.1-20
			l363,25.4H51.2L13.5,351H35l31.3-19l339.5,25.3H69.7c36.1,66.8,106.8,112.2,188.1,112.2c81.3,0,152-45.4,188.1-112.2h37.7
			l-36.3-2.7C451.7,346.2,455.6,337.3,458.9,328.2z"/>
	</g>
</g>
</svg>
